<svg xmlns="http://www.w3.org/2000/svg" viewBox="0 0 500 500" role="img" aria-labelledby="title desc">
  <title id="title">Print Category</title>
  <desc id="desc">Square illustration for Print Category printing category.</desc>
  <defs>
    <linearGradient id="bg" x1="0" y1="0" x2="1" y2="1">
      <stop offset="0" stop-color="#6366f1"/>
      <stop offset="1" stop-color="#22c55e"/>
    </linearGradient>
    <filter id="shadow" x="-20%" y="-20%" width="140%" height="140%">
      <feDropShadow dx="0" dy="18" stdDeviation="18" flood-color="#0f172a" flood-opacity=".22"/>
    </filter>
  </defs>
  <rect width="500" height="500" rx="96" fill="#f8fafc"/>
  <rect x="42" y="42" width="416" height="416" rx="84" fill="url(#bg)" opacity=".16"/>
  <circle cx="390" cy="112" r="52" fill="#22c55e" opacity=".2"/>
  <circle cx="112" cy="390" r="72" fill="#6366f1" opacity=".14"/>
  <g filter="url(#shadow)">
    <rect x="92" y="88" width="316" height="324" rx="42" fill="#ffffff" opacity=".94"/>
  </g>
  <path d="M150 168h200v-44H150z M128 190h244c24 0 44 20 44 44v96h-66v64H150v-64H84v-96c0-24 20-44 44-44z M182 304h136v60H182z M338 226h36v36h-36z" fill="none" stroke="#6366f1" stroke-width="18" stroke-linecap="round" stroke-linejoin="round"/>
  <path d="M126 424h248" stroke="#22c55e" stroke-width="18" stroke-linecap="round" opacity=".75"/>
</svg>
